<svg width="199" height="48" viewBox="0 0 199 48" fill="none" xmlns="http://www.w3.org/2000/svg">
<path d="M12 24.048C12 21.808 12.448 19.8133 13.344 18.064C14.2613 16.3147 15.5627 14.96 17.248 14C18.9333 13.0187 20.9173 12.528 23.2 12.528C25.1627 12.528 26.912 12.9013 28.448 13.648C30.0053 14.3733 31.264 15.408 32.224 16.752C33.2053 18.096 33.856 19.664 34.176 21.456H26.688C26.3467 20.7093 25.856 20.1333 25.216 19.728C24.5973 19.3013 23.8827 19.088 23.072 19.088C21.8773 19.088 20.928 19.536 20.224 20.432C19.5413 21.328 19.2 22.5333 19.2 24.048C19.2 25.5627 19.5413 26.768 20.224 27.664C20.928 28.56 21.8773 29.008 23.072 29.008C23.8827 29.008 24.5973 28.8053 25.216 28.4C25.856 27.9733 26.3467 27.3867 26.688 26.64H34.176C33.856 28.432 33.2053 30 32.224 31.344C31.264 32.688 30.0053 33.7333 28.448 34.48C26.912 35.2053 25.1627 35.568 23.2 35.568C20.9173 35.568 18.9333 35.088 17.248 34.128C15.5627 33.1467 14.2613 31.7813 13.344 30.032C12.448 28.2827 12 26.288 12 24.048Z" fill="#0066FF"/>
<path d="M47.7738 35.632C45.6404 35.632 43.6777 35.1307 41.8857 34.128C40.1151 33.1253 38.7071 31.7387 37.6618 29.968C36.6164 28.1973 36.0938 26.2027 36.0938 23.984C36.0938 21.7653 36.6164 19.7707 37.6618 18C38.7071 16.2293 40.1151 14.8533 41.8857 13.872C43.6777 12.8693 45.6404 12.368 47.7738 12.368C49.9071 12.368 51.8591 12.8693 53.6297 13.872C55.4004 14.8533 56.7977 16.2293 57.8218 18C58.8671 19.7707 59.3898 21.7653 59.3898 23.984C59.3898 26.2027 58.8671 28.1973 57.8218 29.968C56.7977 31.7387 55.3898 33.1253 53.5978 34.128C51.8271 35.1307 49.8857 35.632 47.7738 35.632ZM47.7738 29.008C49.1818 29.008 50.2698 28.56 51.0378 27.664C51.8058 26.7467 52.1898 25.52 52.1898 23.984C52.1898 22.4267 51.8058 21.2 51.0378 20.304C50.2698 19.3867 49.1818 18.928 47.7738 18.928C46.3444 18.928 45.2458 19.3867 44.4778 20.304C43.7098 21.2 43.3258 22.4267 43.3258 23.984C43.3258 25.52 43.7098 26.7467 44.4778 27.664C45.2458 28.56 46.3444 29.008 47.7738 29.008Z" fill="#0066FF"/>
<path d="M69.0565 12.752V35.408H61.9525V12.752H69.0565Z" fill="#0066FF"/>
<path d="M93.993 35.408H86.889L79.369 24.016V35.408H72.265V12.752H79.369L86.889 24.336V12.752H93.993V35.408Z" fill="#0066FF"/>
<path d="M96.5625 24.048C96.5625 21.808 97.0105 19.8133 97.9065 18.064C98.8238 16.3147 100.125 14.96 101.811 14C103.496 13.0187 105.48 12.528 107.762 12.528C109.725 12.528 111.474 12.9013 113.01 13.648C114.568 14.3733 115.826 15.408 116.786 16.752C117.768 18.096 118.419 19.664 118.739 21.456H111.251C110.909 20.7093 110.419 20.1333 109.779 19.728C109.16 19.3013 108.445 19.088 107.634 19.088C106.44 19.088 105.491 19.536 104.786 20.432C104.104 21.328 103.762 22.5333 103.762 24.048C103.762 25.5627 104.104 26.768 104.786 27.664C105.491 28.56 106.44 29.008 107.634 29.008C108.445 29.008 109.16 28.8053 109.779 28.4C110.419 27.9733 110.909 27.3867 111.251 26.64H118.739C118.419 28.432 117.768 30 116.786 31.344C115.826 32.688 114.568 33.7333 113.01 34.48C111.474 35.2053 109.725 35.568 107.762 35.568C105.48 35.568 103.496 35.088 101.811 34.128C100.125 33.1467 98.8238 31.7813 97.9065 30.032C97.0105 28.2827 96.5625 26.288 96.5625 24.048Z" fill="#0066FF"/>
<path d="M135.824 31.984H128.272L127.152 35.408H119.696L127.984 12.752H136.176L144.432 35.408H136.944L135.824 31.984ZM134.096 26.64L132.048 20.336L130 26.64H134.096Z" fill="#0066FF"/>
<path d="M154.91 35.632C152.201 35.632 149.961 35.0027 148.19 33.744C146.441 32.464 145.492 30.5973 145.342 28.144H152.894C153.001 29.4453 153.577 30.096 154.622 30.096C155.006 30.096 155.326 30.0107 155.582 29.84C155.86 29.648 155.998 29.36 155.998 28.976C155.998 28.4427 155.71 28.016 155.134 27.696C154.558 27.3547 153.662 26.9707 152.446 26.544C150.996 26.032 149.79 25.5307 148.83 25.04C147.892 24.5493 147.081 23.8347 146.398 22.896C145.716 21.9573 145.385 20.752 145.406 19.28C145.406 17.808 145.78 16.56 146.526 15.536C147.294 14.4907 148.329 13.7013 149.63 13.168C150.953 12.6347 152.436 12.368 154.078 12.368C156.852 12.368 159.049 13.008 160.67 14.288C162.313 15.568 163.177 17.3707 163.262 19.696H155.614C155.593 19.056 155.433 18.5973 155.134 18.32C154.836 18.0427 154.473 17.904 154.046 17.904C153.748 17.904 153.502 18.0107 153.31 18.224C153.118 18.416 153.022 18.6933 153.022 19.056C153.022 19.568 153.3 19.9947 153.854 20.336C154.43 20.656 155.337 21.0507 156.574 21.52C158.004 22.0533 159.177 22.5653 160.094 23.056C161.033 23.5467 161.844 24.2293 162.526 25.104C163.209 25.9787 163.55 27.0773 163.55 28.4C163.55 29.7867 163.209 31.0347 162.526 32.144C161.844 33.232 160.852 34.0853 159.55 34.704C158.249 35.3227 156.702 35.632 154.91 35.632Z" fill="#0066FF"/>
<path d="M187.006 12.752V35.408H179.902V26.576H173.15V35.408H166.046V12.752H173.15V20.912H179.902V12.752H187.006Z" fill="#0066FF"/>
</svg>
