<svg width="199" height="48" viewBox="0 0 199 48" fill="none" xmlns="http://www.w3.org/2000/svg">
<path d="M12 23.68C12 21.44 12.448 19.4453 13.344 17.696C14.2613 15.9467 15.5627 14.592 17.248 13.632C18.9333 12.6507 20.9173 12.16 23.2 12.16C25.1627 12.16 26.912 12.5333 28.448 13.28C30.0053 14.0053 31.264 15.04 32.224 16.384C33.2053 17.728 33.856 19.296 34.176 21.088H26.688C26.3467 20.3413 25.856 19.7653 25.216 19.36C24.5973 18.9333 23.8827 18.72 23.072 18.72C21.8773 18.72 20.928 19.168 20.224 20.064C19.5413 20.96 19.2 22.1653 19.2 23.68C19.2 25.1947 19.5413 26.4 20.224 27.296C20.928 28.192 21.8773 28.64 23.072 28.64C23.8827 28.64 24.5973 28.4373 25.216 28.032C25.856 27.6053 26.3467 27.0187 26.688 26.272H34.176C33.856 28.064 33.2053 29.632 32.224 30.976C31.264 32.32 30.0053 33.3653 28.448 34.112C26.912 34.8373 25.1627 35.2 23.2 35.2C20.9173 35.2 18.9333 34.72 17.248 33.76C15.5627 32.7787 14.2613 31.4133 13.344 29.664C12.448 27.9147 12 25.92 12 23.68Z" fill="white"/>
<path d="M47.7738 35.264C45.6404 35.264 43.6777 34.7627 41.8857 33.76C40.1151 32.7573 38.7071 31.3707 37.6618 29.6C36.6164 27.8293 36.0938 25.8347 36.0938 23.616C36.0938 21.3973 36.6164 19.4027 37.6618 17.632C38.7071 15.8613 40.1151 14.4853 41.8857 13.504C43.6777 12.5013 45.6404 12 47.7738 12C49.9071 12 51.8591 12.5013 53.6297 13.504C55.4004 14.4853 56.7977 15.8613 57.8218 17.632C58.8671 19.4027 59.3898 21.3973 59.3898 23.616C59.3898 25.8347 58.8671 27.8293 57.8218 29.6C56.7977 31.3707 55.3898 32.7573 53.5978 33.76C51.8271 34.7627 49.8857 35.264 47.7738 35.264ZM47.7738 28.64C49.1818 28.64 50.2698 28.192 51.0378 27.296C51.8058 26.3787 52.1898 25.152 52.1898 23.616C52.1898 22.0587 51.8058 20.832 51.0378 19.936C50.2698 19.0187 49.1818 18.56 47.7738 18.56C46.3444 18.56 45.2458 19.0187 44.4778 19.936C43.7098 20.832 43.3258 22.0587 43.3258 23.616C43.3258 25.152 43.7098 26.3787 44.4778 27.296C45.2458 28.192 46.3444 28.64 47.7738 28.64Z" fill="white"/>
<path d="M69.0565 12.384V35.04H61.9525V12.384H69.0565Z" fill="white"/>
<path d="M93.993 35.04H86.889L79.369 23.648V35.04H72.265V12.384H79.369L86.889 23.968V12.384H93.993V35.04Z" fill="white"/>
<path d="M96.5625 23.68C96.5625 21.44 97.0105 19.4453 97.9065 17.696C98.8238 15.9467 100.125 14.592 101.811 13.632C103.496 12.6507 105.48 12.16 107.762 12.16C109.725 12.16 111.474 12.5333 113.01 13.28C114.568 14.0053 115.826 15.04 116.786 16.384C117.768 17.728 118.419 19.296 118.739 21.088H111.251C110.909 20.3413 110.419 19.7653 109.779 19.36C109.16 18.9333 108.445 18.72 107.634 18.72C106.44 18.72 105.491 19.168 104.786 20.064C104.104 20.96 103.762 22.1653 103.762 23.68C103.762 25.1947 104.104 26.4 104.786 27.296C105.491 28.192 106.44 28.64 107.634 28.64C108.445 28.64 109.16 28.4373 109.779 28.032C110.419 27.6053 110.909 27.0187 111.251 26.272H118.739C118.419 28.064 117.768 29.632 116.786 30.976C115.826 32.32 114.568 33.3653 113.01 34.112C111.474 34.8373 109.725 35.2 107.762 35.2C105.48 35.2 103.496 34.72 101.811 33.76C100.125 32.7787 98.8238 31.4133 97.9065 29.664C97.0105 27.9147 96.5625 25.92 96.5625 23.68Z" fill="white"/>
<path d="M135.824 31.616H128.272L127.152 35.04H119.696L127.984 12.384H136.176L144.432 35.04H136.944L135.824 31.616ZM134.096 26.272L132.048 19.968L130 26.272H134.096Z" fill="white"/>
<path d="M154.91 35.264C152.201 35.264 149.961 34.6347 148.19 33.376C146.441 32.096 145.492 30.2293 145.342 27.776H152.894C153.001 29.0773 153.577 29.728 154.622 29.728C155.006 29.728 155.326 29.6427 155.582 29.472C155.86 29.28 155.998 28.992 155.998 28.608C155.998 28.0747 155.71 27.648 155.134 27.328C154.558 26.9867 153.662 26.6027 152.446 26.176C150.996 25.664 149.79 25.1627 148.83 24.672C147.892 24.1813 147.081 23.4667 146.398 22.528C145.716 21.5893 145.385 20.384 145.406 18.912C145.406 17.44 145.78 16.192 146.526 15.168C147.294 14.1227 148.329 13.3333 149.63 12.8C150.953 12.2667 152.436 12 154.078 12C156.852 12 159.049 12.64 160.67 13.92C162.313 15.2 163.177 17.0027 163.262 19.328H155.614C155.593 18.688 155.433 18.2293 155.134 17.952C154.836 17.6747 154.473 17.536 154.046 17.536C153.748 17.536 153.502 17.6427 153.31 17.856C153.118 18.048 153.022 18.3253 153.022 18.688C153.022 19.2 153.3 19.6267 153.854 19.968C154.43 20.288 155.337 20.6827 156.574 21.152C158.004 21.6853 159.177 22.1973 160.094 22.688C161.033 23.1787 161.844 23.8613 162.526 24.736C163.209 25.6107 163.55 26.7093 163.55 28.032C163.55 29.4187 163.209 30.6667 162.526 31.776C161.844 32.864 160.852 33.7173 159.55 34.336C158.249 34.9547 156.702 35.264 154.91 35.264Z" fill="white"/>
<path d="M187.006 12.384V35.04H179.902V26.208H173.15V35.04H166.046V12.384H173.15V20.544H179.902V12.384H187.006Z" fill="white"/>
</svg>
